<?xml version="1.0" standalone="no"?>
<!DOCTYPE svg PUBLIC "-//W3C//DTD SVG 20010904//EN"
 "http://www.w3.org/TR/2001/REC-SVG-20010904/DTD/svg10.dtd">
<svg version="1.0" xmlns="http://www.w3.org/2000/svg"
 width="896.000000pt" height="896.000000pt" viewBox="0 0 896.000000 896.000000"
 preserveAspectRatio="xMidYMid meet">
<metadata>
Created by potrace 1.14, written by Peter Selinger 2001-2017
</metadata>
<g transform="translate(0.000000,896.000000) scale(0.100000,-0.100000)"
fill="#000000" stroke="none">
<path d="M4018 8735 c-2 -2 -43 -6 -93 -9 -90 -6 -107 -8 -200 -20 -69 -9 -91
-12 -205 -31 -33 -5 -65 -12 -180 -37 -52 -11 -102 -22 -110 -23 -8 -2 -15 -4
-15 -6 0 -1 -9 -3 -20 -5 -60 -8 -380 -114 -530 -174 -121 -48 -411 -185 -425
-200 -3 -3 -25 -15 -50 -28 -25 -12 -52 -27 -60 -32 -8 -5 -60 -37 -115 -71
-139 -87 -347 -232 -395 -276 -16 -14 -35 -30 -96 -78 -142 -113 -431 -405
-558 -565 -20 -25 -42 -52 -49 -60 -8 -8 -27 -33 -43 -55 -16 -22 -37 -49 -46
-59 -10 -11 -18 -23 -18 -27 0 -4 -6 -14 -13 -21 -22 -23 -137 -196 -137 -206
0 -6 -3 -12 -8 -14 -8 -3 -80 -122 -120 -198 -14 -25 -39 -72 -56 -105 -38
-70 -132 -274 -151 -325 -7 -19 -21 -53 -31 -75 -10 -22 -19 -49 -21 -59 -2
-11 -8 -25 -14 -32 -5 -6 -11 -20 -13 -30 -2 -11 -18 -61 -35 -112 -28 -84
-96 -329 -107 -385 -2 -12 -6 -33 -9 -47 -3 -14 -8 -36 -11 -50 -3 -14 -7 -36
-10 -50 -26 -137 -30 -164 -40 -252 -3 -29 -7 -64 -10 -78 -12 -76 -19 -253
-18 -465 0 -246 9 -412 29 -542 3 -18 7 -50 10 -70 6 -45 15 -98 22 -133 3
-14 6 -29 7 -35 1 -5 5 -16 9 -22 5 -7 4 -13 -1 -13 -5 0 -4 -19 3 -42 11 -35
42 -162 60 -239 5 -26 27 -103 33 -119 3 -8 6 -19 7 -25 15 -64 126 -360 185
-490 40 -89 143 -298 151 -305 3 -3 13 -21 22 -40 10 -19 26 -48 37 -65 10
-16 25 -41 33 -55 31 -56 82 -135 89 -138 5 -2 8 -9 8 -16 0 -7 9 -21 20 -31
11 -10 20 -24 20 -32 0 -7 4 -13 9 -13 5 0 12 -8 15 -17 3 -10 16 -29 28 -43
13 -14 35 -43 50 -65 15 -22 39 -53 53 -70 13 -16 28 -34 32 -40 16 -21 99
-121 128 -154 110 -127 375 -380 514 -491 24 -19 52 -43 63 -52 10 -10 18 -15
18 -12 0 3 7 -2 16 -10 8 -9 46 -37 82 -63 37 -26 69 -51 70 -55 2 -5 10 -8
18 -8 8 0 14 -3 14 -8 0 -4 9 -12 19 -17 11 -6 58 -35 106 -65 104 -66 115
-73 230 -136 168 -93 475 -234 507 -234 8 0 19 -5 24 -10 6 -6 19 -12 30 -15
10 -2 53 -16 94 -31 41 -14 111 -37 155 -51 76 -23 92 -28 133 -37 9 -2 29 -9
43 -14 15 -6 29 -8 32 -5 3 3 12 1 19 -3 7 -5 20 -10 28 -11 8 -1 60 -12 115
-24 55 -11 111 -22 125 -24 26 -3 88 -14 124 -21 11 -2 48 -7 81 -10 33 -3 71
-7 85 -10 134 -25 812 -25 837 -1 3 4 -7 7 -23 8 -16 0 -38 2 -49 4 -20 4 -72
12 -135 21 -19 3 -58 9 -86 15 -28 5 -64 12 -80 15 -16 3 -37 7 -46 10 -10 3
-30 7 -45 10 -38 6 -184 43 -203 51 -8 3 -24 7 -35 9 -11 1 -54 14 -95 28 -41
15 -86 29 -100 32 -13 3 -30 10 -37 16 -7 6 -13 8 -13 5 0 -6 -160 55 -265
100 -85 37 -309 147 -380 186 -153 86 -239 138 -243 149 -2 4 -8 8 -13 8 -5 0
-44 24 -85 53 -42 28 -83 57 -92 62 -9 6 -21 15 -27 21 -5 6 -31 26 -57 44
-27 18 -48 37 -48 42 0 4 -5 8 -11 8 -8 0 -100 71 -129 100 -3 3 -38 34 -79
70 -90 79 -253 241 -330 330 -31 35 -65 75 -76 87 -59 66 -185 230 -256 333
-24 36 -47 67 -51 68 -5 2 -8 8 -8 14 0 5 -13 28 -29 51 -35 52 -111 177 -111
184 0 3 -9 18 -21 34 -11 16 -17 29 -13 29 4 0 0 8 -8 18 -17 18 -128 245
-173 352 -15 36 -31 74 -36 85 -24 55 -96 259 -103 290 -3 13 -26 86 -33 105
-3 8 -7 20 -8 25 -2 6 -15 57 -30 114 -14 58 -30 123 -35 145 -5 23 -10 50
-13 61 -4 19 -18 92 -23 125 -7 47 -13 89 -18 115 -2 17 -8 55 -11 85 -4 30
-9 69 -11 85 -24 187 -24 637 1 870 9 91 17 152 21 166 3 9 7 36 9 60 6 46 12
84 15 84 1 0 3 11 5 25 1 14 7 50 14 80 6 30 13 64 15 75 2 11 14 58 26 105
12 47 23 92 25 100 6 30 69 226 85 265 7 17 31 88 35 105 1 3 7 17 13 32 6 15
28 67 47 115 47 114 162 350 187 386 11 15 16 27 11 27 -4 0 -3 4 2 8 13 8 95
151 95 163 0 5 5 9 10 9 6 0 10 4 10 9 0 10 149 233 180 268 11 13 20 26 20
31 0 4 12 21 28 37 15 17 46 55 69 85 126 163 337 381 542 560 34 30 72 61 84
69 12 8 24 18 27 21 10 14 217 167 233 173 10 3 17 11 17 17 0 5 5 10 10 10 6
0 33 16 60 35 28 19 50 32 50 28 0 -5 4 -3 8 4 24 38 606 343 655 343 7 0 18
5 24 11 6 6 17 12 24 13 8 2 25 7 39 13 52 21 200 74 217 78 10 2 46 13 79 24
34 12 70 22 80 24 11 2 26 7 34 10 20 8 118 33 210 52 98 21 98 21 150 31 25
4 47 8 50 9 3 1 30 5 60 9 30 5 64 10 75 12 21 4 121 16 142 17 35 1 -4 11
-59 14 -82 5 -586 12 -590 8z"/>
<path d="M5448 6605 c-2 -3 -22 -7 -43 -10 -91 -11 -197 -52 -300 -113 -129
-78 -246 -206 -317 -347 -28 -55 -80 -216 -73 -223 3 -3 1 -10 -5 -17 -11 -13
-8 -1103 4 -1155 38 -172 139 -352 255 -455 19 -16 39 -35 45 -40 23 -22 103
-74 162 -103 49 -25 158 -63 179 -63 2 0 19 -5 37 -11 23 -8 439 -12 1373 -13
l1340 -1 2 -426 2 -425 -27 1 c-15 1 -33 -3 -39 -8 -7 -4 -13 -5 -13 0 0 5
-25 9 -55 9 -30 0 -55 -4 -55 -8 0 -5 -5 -5 -12 -1 -17 11 -108 11 -108 1 0
-5 -5 -5 -12 -1 -17 11 -108 11 -108 1 0 -5 -5 -5 -12 -1 -17 11 -108 11 -108
1 0 -5 -5 -5 -12 -1 -17 11 -108 11 -108 1 0 -5 -5 -5 -12 -1 -17 11 -108 11
-108 1 0 -5 -5 -5 -12 -1 -17 11 -108 11 -108 1 0 -5 -6 -5 -12 -1 -17 11
-288 11 -288 1 0 -5 -5 -5 -12 -1 -16 10 -148 11 -148 1 0 -5 -5 -5 -12 -1
-16 10 -148 11 -148 1 0 -5 -5 -5 -12 -1 -15 10 -148 11 -148 2 0 -4 -12 -3
-27 0 -35 9 -55 9 -70 -1 -7 -5 -13 -5 -13 0 0 10 -91 10 -108 -1 -7 -4 -12
-4 -12 1 0 10 -91 10 -108 -1 -7 -4 -12 -4 -12 1 0 10 -91 10 -108 -1 -7 -4
-12 -4 -12 1 0 4 -33 7 -72 6 -40 -2 -79 -3 -85 -3 -13 0 -91 0 -115 0 -7 0
-38 1 -68 3 -30 1 -61 -1 -67 -6 -8 -6 -13 -5 -13 1 0 6 -6 9 -12 7 -7 -2 -35
-6 -63 -9 -27 -3 -59 -8 -70 -11 -11 -2 -39 -9 -62 -15 -76 -18 -196 -75 -255
-121 -20 -16 -40 -29 -44 -29 -27 0 -227 -246 -226 -277 0 -4 -5 -15 -12 -23
-7 -8 -16 -24 -19 -35 -3 -11 -15 -44 -26 -74 -11 -30 -19 -57 -16 -59 2 -2
-1 -16 -6 -30 -5 -14 -12 -58 -15 -99 l-5 -73 1768 3 c972 1 1779 6 1793 10
26 7 74 18 87 19 18 2 151 61 193 85 104 61 207 160 280 270 41 62 96 178 105
223 2 8 4 15 5 15 1 0 3 9 5 20 3 11 9 43 14 70 7 31 9 257 7 595 -3 579 -2
563 -53 700 -40 106 -131 245 -203 306 -14 12 -36 32 -50 44 -99 88 -275 167
-416 186 -27 4 -641 8 -1366 8 l-1316 1 1 425 2 425 23 -1 c12 0 22 3 22 8 0
5 6 6 12 2 17 -11 288 -11 288 -1 0 5 5 5 12 1 16 -10 148 -11 148 -1 0 5 5 5
12 1 16 -10 148 -11 148 -1 0 5 5 5 12 1 15 -10 148 -11 148 -2 0 4 14 3 30
-2 20 -6 30 -5 30 2 0 6 5 7 13 2 6 -5 31 -8 55 -7 23 2 49 3 57 3 8 0 35 0
60 0 25 0 52 0 60 0 8 0 35 0 60 0 25 0 52 0 60 0 8 0 35 0 60 0 25 0 52 0 60
0 8 0 35 0 60 0 25 0 51 0 58 0 6 0 32 -1 57 -3 25 -1 51 1 58 6 6 5 12 6 12
1 0 -11 91 -11 108 0 7 4 12 4 12 -1 0 -10 91 -10 108 1 7 4 12 4 12 -1 0 -10
91 -10 108 1 7 4 12 4 12 -1 0 -10 212 -9 228 1 7 4 12 4 12 -1 0 -10 91 -10
108 1 7 4 12 4 12 -1 0 -10 151 -10 168 1 7 4 12 3 12 -1 0 -16 162 -1 253 23
131 34 270 110 370 203 38 36 127 147 127 159 0 5 7 15 16 22 8 8 22 30 31 49
36 84 61 151 56 151 -3 0 0 7 7 15 7 8 10 15 7 15 -3 0 -1 15 4 33 5 17 12 65
15 105 l6 72 -1754 0 c-965 0 -1757 -2 -1760 -5z"/>
</g>
</svg>
